<svg xmlns="http://www.w3.org/2000/svg" xmlns:xlink="http://www.w3.org/1999/xlink" width="34.447" height="34.447" viewBox="0 0 34.447 34.447"><defs><style>.a{clip-path:url(#a);}.b{fill:#00677f;opacity:0.8;}</style><clipPath id="a"><path d="M0-85.333H34.447v34.447H0Z" transform="translate(0 85.333)"/></clipPath></defs><g class="a"><path class="b" d="M29.915-66.289,20.154-55.741a1.615,1.615,0,0,1-1.35.509A1.615,1.615,0,0,1,17.586-56l-3.109-5.167a1.615,1.615,0,0,1,.551-2.217,1.615,1.615,0,0,1,2.217.552l2,3.324,8.3-8.97a1.614,1.614,0,0,1,2.282-.088,1.614,1.614,0,0,1,.088,2.282M22.45-76.582A13.722,13.722,0,0,0,8.725-62.86,13.727,13.727,0,0,0,22.45-49.132,13.728,13.728,0,0,0,36.175-62.86,13.723,13.723,0,0,0,22.45-76.582" transform="translate(-5.203 80.115)"/></g></svg>