<svg xmlns="http://www.w3.org/2000/svg" width="64.406" height="13.796" viewBox="0 0 64.406 13.796"><defs><style>.a{fill:#e71316;}</style></defs><path class="a" d="M773.6,333.363v-1.378h-6.2v1.378h2.123v5.992h1.919v-5.992Zm23.882,5.992c-.051-.49-.082-.867-.082-1.123v-2.48a1.635,1.635,0,0,0-1.755-1.674,1.972,1.972,0,0,0-1.7.908,1.513,1.513,0,0,0-1.44-.878,1.707,1.707,0,0,0-1.653.878l-.041-.766h-1.755v5.135h1.817v-3.093c0-.163-.071-1.041.766-1.041.561,0,.694.5.694.99v3.144h1.807v-3.093c0-.163-.072-1.041.765-1.041.562,0,.695.5.695.99v3.144Zm-8.849-3.624V334.17a1.454,1.454,0,0,0-1.622,1.031l-.041-.98h-1.817c.041.419.041.98.041,1.317v3.818h1.817v-2.246c0-.847.245-1.368,1.245-1.388.122,0,.245,0,.377.01Zm11.98-1.654a2.711,2.711,0,1,0,2.766,2.695,2.5,2.5,0,0,0-2.766-2.695Zm0,1.082c.766,0,.908.786.908,1.592,0,.939-.163,1.674-.908,1.674s-.909-.735-.909-1.674c0-.816.143-1.6.909-1.6v.01Zm-21.416,4.2a10.891,10.891,0,0,1-.071-1.123v-2.48a1.643,1.643,0,0,0-1.766-1.674,2.144,2.144,0,0,0-.858.163,1.823,1.823,0,0,0-.653.521v-2.777h-1.817v7.37h1.817v-3.093c0-.163-.071-1.041.766-1.041.572,0,.694.5.694.99v3.144Zm5.554-2.215c.01-1.847-.541-3.062-2.593-3.062a2.389,2.389,0,0,0-2.593,2.562c0,1.919.684,2.858,2.685,2.858a2.81,2.81,0,0,0,1.592-.428,1.848,1.848,0,0,0,.868-1.409h-1.715a.8.8,0,0,1-.868.786c-.694,0-.837-.663-.827-1.306Zm-1.736-.99h-1.684c.041-.541.163-1.093.837-1.123a.677.677,0,0,1,.644.357,1.422,1.422,0,0,1,.2.775v-.01Z" transform="translate(-767.399 -331.984)"/><path class="a" d="M1026.054,335.633v-1.562a1.454,1.454,0,0,0-1.623,1.031l-.04-.889h-1.817c.041.419.041.98.041,1.317v3.818h1.816V337.1c0-.847.246-1.459,1.246-1.48.122,0,.244,0,.377.01Zm-9.451,3.716a10.855,10.855,0,0,1-.072-1.123v-2.48a1.643,1.643,0,0,0-1.766-1.674,2.04,2.04,0,0,0-.837.163,1.872,1.872,0,0,0-.673.521v-2.777h-1.817v7.37h1.817v-3.093c0-.163-.072-1.041.765-1.041.571,0,.694.5.694.99v3.144Zm-5.611-1.531a1.363,1.363,0,0,0-1-1.4c-1.093-.388-1.909-.408-1.909-.816a.432.432,0,0,1,.47-.48.652.652,0,0,1,.489.163.717.717,0,0,1,.133.49h1.725c-.041-1.347-1.1-1.7-2.266-1.7-.99,0-2.276.347-2.276,1.582,0,1.8,2.909,1.327,2.909,2.286,0,.337-.275.49-.633.49a.569.569,0,0,1-.47-.245.655.655,0,0,1-.112-.5h-1.736c-.03,1.531,1.1,1.807,2.358,1.807,1.174,0,2.317-.429,2.317-1.674Zm11.174-.684c.011-1.847-.541-3.062-2.592-3.062a2.389,2.389,0,0,0-2.593,2.562c0,1.919.684,2.858,2.685,2.858a2.807,2.807,0,0,0,1.592-.429,1.847,1.847,0,0,0,.868-1.409h-1.715a.8.8,0,0,1-.868.786c-.694,0-.837-.663-.826-1.306Zm-1.735-.99h-1.684c.041-.541.163-1.093.837-1.123a.677.677,0,0,1,.643.357,1.424,1.424,0,0,1,.2.775v-.01Zm-14.577,3.205v-5.135h-1.817v5.135Zm-2.382-6.012.429-1.358h-4.883v7.37h1.919v-2.9h1.55l.427-1.358h-1.978v-1.756Zm2.381,0,.432-1.356h-1.8l-.432,1.356Z" transform="translate(-961.648 -331.977)"/><path class="a" d="M793.847,394.65v-4.178h.666v4.178Zm44.865.072a2.16,2.16,0,0,1-2.434-2.129,2.291,2.291,0,0,1,2.477-2.208,2.592,2.592,0,0,1,1.311.366l-.342.406a2,2,0,0,0-.961-.273,1.738,1.738,0,0,0-1.325.51,1.714,1.714,0,0,0-.422,1.222,1.527,1.527,0,0,0,.5,1.219,1.8,1.8,0,0,0,1.287.4,2.344,2.344,0,0,0,1.056-.3l.325.39a2.826,2.826,0,0,1-1.468.392Zm-7.007-.072v-4.178h.666v4.178Zm-15.068-3.679h-1.557v3.679h-.65v-3.679h-1.545v-.5h3.824l-.073.5Zm-34.715,3.53a2.638,2.638,0,0,1-1.177.236,3.888,3.888,0,0,1-1.69-.377l.277-.473a3.147,3.147,0,0,0,1.457.351,1.488,1.488,0,0,0,.76-.169.608.608,0,0,0,.368-.541c0-.349-.268-.566-.914-.717l-.68-.158c-.676-.158-1.1-.58-1.1-1.075,0-.713.7-1.217,1.7-1.217a3.192,3.192,0,0,1,1.6.4l-.3.436a2.591,2.591,0,0,0-1.267-.334c-.594,0-1.005.231-1.005.622,0,.3.251.482.835.622l.628.151a2.238,2.238,0,0,1,.924.423,1.044,1.044,0,0,1,.325.746,1.238,1.238,0,0,1-.739,1.076Zm26.765.149-1.66-2.228c-.311-.418-.837-1.233-.837-1.233s.059.706.063,1.324l.016,2.137h-.664v-4.178h.79l1.677,2.275c.327.443.781,1.146.781,1.146s-.1-.771-.1-1.324l-.016-2.1h.658v4.178Zm11.448,0v-4.178h.667v4.178Zm7.933-3.686h-2.292V392.2h1.939v.492h-1.939v1.958h-.667v-4.178h3.047l-.089.491Zm-29.247,3.686v-4.178H801.9l-.09.5h-2.325v1.245h1.982v.5H799.5v1.411h2.488v.523Zm-10.125.072a2.16,2.16,0,0,1-2.433-2.129,2.291,2.291,0,0,1,2.477-2.208,2.593,2.593,0,0,1,1.311.366l-.341.406a2,2,0,0,0-.961-.273,1.738,1.738,0,0,0-1.325.51,1.714,1.714,0,0,0-.422,1.222,1.526,1.526,0,0,0,.5,1.219,1.8,1.8,0,0,0,1.287.4,2.344,2.344,0,0,0,1.057-.3l.324.39a2.823,2.823,0,0,1-1.469.392Z" transform="translate(-777.174 -380.941)"/></svg>