<svg xmlns="http://www.w3.org/2000/svg" width="40" height="40" viewBox="0 0 40 40"><defs><style>.a{fill:none;}.b{fill:#fff;}</style></defs><g transform="translate(-531 -121)"><rect class="a" width="40" height="40" transform="translate(531 121)"/><g transform="translate(536.003 125.79)"><path class="b" d="M29.658,11.576,24.84,7.564V4.33a.937.937,0,1,0-1.875,0V6L16.8.862a2.812,2.812,0,0,0-3.6,0L.336,11.576a.939.939,0,0,0,1.2,1.444L14.4,2.3a.937.937,0,0,1,1.2,0l10.649,8.873V27.3a.937.937,0,0,1-.937.937H20.622V17.922a2.812,2.812,0,0,0-2.812-2.812H12.185a2.812,2.812,0,0,0-2.812,2.812V28.234H4.686a.937.937,0,0,1-.937-.937V16.048a.937.937,0,0,0-1.875,0V27.3a2.812,2.812,0,0,0,2.812,2.812H25.309A2.812,2.812,0,0,0,28.121,27.3V12.739l.337.281a.939.939,0,1,0,1.2-1.444ZM11.247,28.234V17.922a.937.937,0,0,1,.937-.937h5.624a.937.937,0,0,1,.937.937V28.234Z" transform="translate(0 0)"/><circle class="b" cx="0.575" cy="0.575" r="0.575" transform="translate(13.461 22.227)"/></g></g></svg>