<svg xmlns="http://www.w3.org/2000/svg" width="400.382" height="85.765" viewBox="0 0 400.382 85.765"><defs><style>.a{fill:#fff;}</style></defs><g transform="translate(-767.399 -331.977)"><g transform="translate(767.399 331.977)"><path class="a" d="M805.918,340.554v-8.569H767.4v8.569h13.2V377.8h11.929V340.554ZM954.379,377.8c-.316-3.044-.508-5.392-.508-6.98V355.4c0-6.41-4.695-10.408-10.912-10.408a12.259,12.259,0,0,0-10.6,5.647c-1.334-3.553-5.272-5.457-8.95-5.457-4.442,0-8.185,1.459-10.278,5.457l-.257-4.762H901.964V377.8h11.294V358.575c0-1.016-.44-6.473,4.759-6.473,3.489,0,4.317,3.111,4.317,6.156V377.8h11.231V358.575c0-1.016-.446-6.473,4.757-6.473,3.491,0,4.319,3.111,4.319,6.156V377.8Zm-55.013-22.527v-9.708c-4.883-.065-8.627,1.522-10.086,6.408l-.257-6.095h-11.3c.256,2.6.256,6.095.256,8.189V377.8h11.3V363.841c0-5.266,1.522-8.5,7.74-8.627.76,0,1.524,0,2.346.062ZM973.843,345c-10.409,0-17.2,5.774-17.2,16.751,0,11.3,6.851,16.944,17.2,16.944s17.195-5.647,17.195-16.944c0-10.977-6.787-16.751-17.195-16.751Zm0,6.726c4.76,0,5.647,4.885,5.647,9.9,0,5.839-1.013,10.407-5.647,10.407s-5.65-4.568-5.65-10.407c0-5.075.889-9.962,5.65-9.962v.063ZM840.707,377.8a67.623,67.623,0,0,1-.444-6.98V355.4c0-6.41-4.761-10.408-10.978-10.408a13.322,13.322,0,0,0-5.333,1.015,11.335,11.335,0,0,0-4.062,3.237V331.985H808.6V377.8H819.89V358.575c0-1.016-.441-6.473,4.761-6.473,3.553,0,4.317,3.111,4.317,6.156V377.8Zm34.524-13.769C875.294,352.55,871.866,345,859.11,345c-10.089,0-16.116,6.217-16.116,15.927,0,11.929,4.251,17.768,16.69,17.768a17.474,17.474,0,0,0,9.9-2.664,11.492,11.492,0,0,0,5.394-8.759H864.316c-.317,2.92-2.031,4.885-5.395,4.885-4.316,0-5.2-4.124-5.141-8.12Zm-10.79-6.156H853.973c.252-3.363,1.014-6.792,5.2-6.98a4.208,4.208,0,0,1,4,2.221,8.836,8.836,0,0,1,1.267,4.82v-.061Z" transform="translate(-767.399 -331.977)"/><path class="a" d="M1167.1,354.7V345c-4.882-.065-8.63,1.522-10.089,6.409l-.25-5.524h-11.294c.253,2.6.253,6.1.253,8.189V377.8h11.292V363.841c0-5.266,1.527-9.073,7.747-9.2.757,0,1.518,0,2.342.065Zm-58.754,23.1a67.576,67.576,0,0,1-.445-6.981V355.4c0-6.41-4.76-10.408-10.975-10.408a12.68,12.68,0,0,0-5.206,1.015,11.643,11.643,0,0,0-4.185,3.236V331.985h-11.3V377.8h11.3V358.575c0-1.016-.445-6.473,4.757-6.473,3.552,0,4.315,3.111,4.315,6.156V377.8Zm-34.883-9.517c0-4.951-2.6-7.363-6.215-8.7-6.792-2.409-11.867-2.537-11.867-5.075a2.689,2.689,0,0,1,2.922-2.982,4.051,4.051,0,0,1,3.041,1.016,4.455,4.455,0,0,1,.826,3.043h10.726c-.254-8.374-6.853-10.6-14.089-10.6-6.155,0-14.148,2.157-14.148,9.837,0,11.167,18.082,8.249,18.082,14.213,0,2.1-1.712,3.048-3.934,3.048a3.538,3.538,0,0,1-2.919-1.526,4.073,4.073,0,0,1-.7-3.108H1044.4c-.188,9.519,6.853,11.231,14.658,11.231,7.3,0,14.4-2.664,14.4-10.406Zm69.466-4.251c.065-11.485-3.363-19.038-16.116-19.038-10.093,0-16.121,6.217-16.121,15.927,0,11.929,4.251,17.768,16.69,17.768a17.451,17.451,0,0,0,9.9-2.664,11.488,11.488,0,0,0,5.4-8.759h-10.661c-.319,2.92-2.031,4.885-5.4,4.885-4.311,0-5.2-4.124-5.136-8.12Zm-10.788-6.156h-10.469c.253-3.363,1.013-6.792,5.2-6.98a4.212,4.212,0,0,1,4,2.221,8.855,8.855,0,0,1,1.267,4.82v-.061ZM1041.516,377.8V345.881h-11.295V377.8Zm-14.81-37.376,2.665-8.442H999.016V377.8h11.931V359.782h9.638l2.657-8.442h-12.294V340.427Zm14.8-.023,2.683-8.427H1033.03l-2.683,8.427Z" transform="translate(-766.714 -331.977)"/><path class="a" d="M871.013,417.026V391.054h4.143v25.972Zm278.9.445c-8.656,0-15.129-4.8-15.129-13.235,0-8.538,7.261-13.725,15.4-13.725a16.111,16.111,0,0,1,8.149,2.277l-2.125,2.526a12.4,12.4,0,0,0-5.973-1.7,10.8,10.8,0,0,0-8.236,3.17,10.657,10.657,0,0,0-2.625,7.6,9.492,9.492,0,0,0,3.081,7.578c1.984,1.962,5.018,2.5,8,2.5a14.561,14.561,0,0,0,6.563-1.853l2.02,2.427a17.568,17.568,0,0,1-9.126,2.435Zm-43.562-.445V391.054h4.141v25.972Zm-93.67-22.87h-9.676v22.87h-4.04v-22.87h-9.6v-3.1h23.772l-.452,3.1ZM796.878,416.1a16.4,16.4,0,0,1-7.319,1.466,24.171,24.171,0,0,1-10.505-2.344l1.719-2.942a19.567,19.567,0,0,0,9.058,2.18,9.248,9.248,0,0,0,4.724-1.049,3.777,3.777,0,0,0,2.288-3.363c0-2.167-1.667-3.519-5.682-4.455l-4.228-.985c-4.2-.981-6.845-3.609-6.845-6.683,0-4.431,4.35-7.567,10.556-7.567a19.84,19.84,0,0,1,9.968,2.474l-1.87,2.711a16.109,16.109,0,0,0-7.879-2.079c-3.691,0-6.248,1.435-6.248,3.869,0,1.878,1.56,2.994,5.189,3.866l3.9.936a13.917,13.917,0,0,1,5.747,2.632,6.493,6.493,0,0,1,2.02,4.641,7.7,7.7,0,0,1-4.6,6.692Zm166.387.924-10.319-13.849c-1.935-2.6-5.2-7.664-5.2-7.664s.365,4.387.392,8.23l.1,13.282h-4.125V391.054h4.912L959.452,405.2c2.031,2.755,4.854,7.123,4.854,7.123s-.614-4.792-.641-8.23l-.1-13.036h4.092v25.972Zm71.164,0V391.054h4.145v25.972Zm49.313-22.917H1069.5v7.686h12.054v3.059H1069.5v12.173h-4.145V391.054h18.941l-.55,3.055ZM901.925,417.026V391.054h19.157l-.556,3.1H906.073v7.738h12.321V405H906.127v8.774H921.6v3.252Zm-62.939.445c-8.65,0-15.125-4.8-15.125-13.235,0-8.538,7.262-13.725,15.4-13.725a16.118,16.118,0,0,1,8.151,2.277l-2.121,2.526a12.435,12.435,0,0,0-5.974-1.7,10.805,10.805,0,0,0-8.239,3.17,10.657,10.657,0,0,0-2.625,7.6,9.487,9.487,0,0,0,3.081,7.578c1.984,1.962,5.019,2.5,8,2.5a14.568,14.568,0,0,0,6.569-1.853l2.017,2.427a17.551,17.551,0,0,1-9.129,2.435Z" transform="translate(-767.365 -331.804)"/></g></g></svg>