<svg xmlns="http://www.w3.org/2000/svg" viewBox="0 0 96 20.56"><defs><style>.cls-1{fill:#e71316;}.cls-1,.cls-2{fill-rule:evenodd;}</style></defs><g id="Layer_2" data-name="Layer 2"><g id="Layer_1-2" data-name="Layer 1"><path class="cls-1" d="M9.24,2.06V0H0V2.06H3.16V11H6V2.06ZM44.83,11c-.07-.73-.12-1.29-.12-1.68V5.62a2.44,2.44,0,0,0-2.62-2.5,2.94,2.94,0,0,0-2.54,1.36,2.24,2.24,0,0,0-2.14-1.31,2.55,2.55,0,0,0-2.47,1.31l-.06-1.15H32.26V11H35V6.38c0-.25-.1-1.55,1.14-1.55.84,0,1,.74,1,1.47V11h2.69V6.38c0-.25-.11-1.55,1.14-1.55.84,0,1,.74,1,1.47V11ZM31.64,5.59V3.26A2.16,2.16,0,0,0,29.22,4.8l-.06-1.47H26.45c.07.63.07,1.47.07,2V11h2.7V7.64c0-1.26.37-2,1.86-2.07a5.43,5.43,0,0,1,.56,0ZM49.5,3.12c-2.5,0-4.12,1.39-4.12,4S47,11.2,49.5,11.2s4.12-1.35,4.12-4.06-1.63-4-4.12-4Zm0,1.61c1.14,0,1.35,1.18,1.35,2.38,0,1.4-.24,2.49-1.35,2.49s-1.36-1.09-1.36-2.49c0-1.22.22-2.39,1.36-2.39ZM17.58,11a15.41,15.41,0,0,1-.11-1.68V5.62a2.45,2.45,0,0,0-2.63-2.5,3.14,3.14,0,0,0-1.28.25,2.67,2.67,0,0,0-1,.77V0H9.88V11h2.71V6.38c0-.25-.11-1.55,1.14-1.55.85,0,1,.74,1,1.47V11Zm8.27-3.3c0-2.76-.8-4.57-3.86-4.57a3.56,3.56,0,0,0-3.86,3.82c0,2.86,1,4.26,4,4.26a4.13,4.13,0,0,0,2.37-.64,2.73,2.73,0,0,0,1.29-2.1H23.24a1.2,1.2,0,0,1-1.3,1.17c-1,0-1.24-1-1.23-1.94ZM23.27,6.21H20.76C20.82,5.4,21,4.58,22,4.54a1,1,0,0,1,1,.53,2.06,2.06,0,0,1,.31,1.16v0Z"/><path class="cls-1" d="M96,5.45V3.12a2.18,2.18,0,0,0-2.42,1.54l-.06-1.33H90.81c.06.63.06,1.47.06,2V11h2.71V7.64c0-1.26.37-2.18,1.86-2.21a5.43,5.43,0,0,1,.56,0ZM81.91,11c-.07-.73-.1-1.25-.1-1.68V5.62a2.46,2.46,0,0,0-2.64-2.5,3,3,0,0,0-1.24.25,2.78,2.78,0,0,0-1,.77V0H74.21V11h2.71V6.38c0-.25-.1-1.55,1.14-1.55.85,0,1,.74,1,1.47V11ZM73.55,8.71a2,2,0,0,0-1.49-2.09C70.43,6,69.21,6,69.21,5.4a.64.64,0,0,1,.7-.71,1,1,0,0,1,.73.24,1.06,1.06,0,0,1,.2.73h2.57c-.06-2-1.64-2.54-3.38-2.54-1.47,0-3.39.52-3.39,2.36,0,2.68,4.34,2,4.34,3.41,0,.5-.41.73-1,.73a.85.85,0,0,1-.7-.37,1,1,0,0,1-.16-.74H66.58c0,2.28,1.64,2.69,3.51,2.69s3.46-.64,3.46-2.49Zm16.65-1c0-2.76-.8-4.57-3.86-4.57a3.56,3.56,0,0,0-3.87,3.82c0,2.86,1,4.26,4,4.26a4.13,4.13,0,0,0,2.37-.64,2.73,2.73,0,0,0,1.29-2.1H87.59a1.2,1.2,0,0,1-1.3,1.17c-1,0-1.24-1-1.23-1.94ZM87.62,6.21H85.11c.06-.81.24-1.63,1.24-1.67a1,1,0,0,1,1,.53,2.06,2.06,0,0,1,.31,1.16v0ZM65.89,11V3.33H63.18V11ZM62.34,2,63,0H55.7V11h2.86V6.67h2.31l.64-2H58.56V2Zm3.55,0,.64-2H63.85l-.64,2Z"/><path class="cls-2" d="M24.85,20.43V14.21h1v6.22Zm66.87.11c-2.07,0-3.62-1.15-3.62-3.17a3.41,3.41,0,0,1,3.69-3.29,3.91,3.91,0,0,1,1.95.54l-.51.61a2.83,2.83,0,0,0-1.43-.41,2.58,2.58,0,0,0-2,.76,2.53,2.53,0,0,0-.63,1.82,2.27,2.27,0,0,0,.74,1.82,2.66,2.66,0,0,0,1.91.6,3.42,3.42,0,0,0,1.58-.45l.48.59a4.19,4.19,0,0,1-2.19.58Zm-10.44-.11V14.21h1v6.22ZM58.82,15H56.5v5.48h-1V15h-2.3v-.74h5.7l-.11.74ZM7.08,20.21a3.92,3.92,0,0,1-1.76.35A5.78,5.78,0,0,1,2.8,20l.42-.7a4.66,4.66,0,0,0,2.17.52,2.31,2.31,0,0,0,1.13-.25.91.91,0,0,0,.55-.81c0-.52-.4-.84-1.36-1.07l-1-.23c-1-.24-1.64-.87-1.64-1.61,0-1.06,1-1.81,2.53-1.81A4.8,4.8,0,0,1,8,14.63l-.45.65a3.9,3.9,0,0,0-1.89-.5c-.88,0-1.49.35-1.49.93s.37.72,1.24.93l.94.22a3.29,3.29,0,0,1,1.37.64,1.51,1.51,0,0,1,.49,1.11,1.85,1.85,0,0,1-1.1,1.6ZM47,20.43,44.5,17.11c-.47-.62-1.25-1.83-1.25-1.83s.09,1,.09,2l0,3.18h-1V14.21h1.18l2.5,3.39c.48.66,1.16,1.71,1.16,1.71a18.93,18.93,0,0,1-.15-2l0-3.12h1v6.22Zm17.06,0V14.21h1v6.22Zm11.83-5.49H72.44v1.84h2.89v.74H72.44v2.91h-1V14.21H76l-.13.73Zm-43.6,5.49V14.21h4.6l-.14.74H33.26v1.86h3v.74H33.27v2.1H37v.78Zm-15.09.11c-2.07,0-3.62-1.15-3.62-3.17a3.41,3.41,0,0,1,3.69-3.29,3.94,3.94,0,0,1,2,.54l-.51.61a2.86,2.86,0,0,0-1.43-.41,2.58,2.58,0,0,0-2,.76,2.53,2.53,0,0,0-.63,1.82,2.27,2.27,0,0,0,.74,1.82,2.66,2.66,0,0,0,1.91.6,3.42,3.42,0,0,0,1.58-.45l.48.59a4.19,4.19,0,0,1-2.19.58Z"/></g></g></svg>